Land_normalized_pl07_filtered_grf
version=1
nRows=27
nColumns=37
inDegrees=yes
endheader
time		1_ground_force_vx		1_ground_force_vy		1_ground_force_vz		1_ground_force_px		1_ground_force_py		1_ground_force_pz		1_ground_torque_x		1_ground_torque_y		1_ground_torque_z		2_ground_force_vx		2_ground_force_vy		2_ground_force_vz		2_ground_force_px		2_ground_force_py		2_ground_force_pz		2_ground_torque_x		2_ground_torque_y		2_ground_torque_z		3_ground_force_vx		3_ground_force_vy		3_ground_force_vz		3_ground_force_px		3_ground_force_py		3_ground_force_pz		3_ground_torque_x		3_ground_torque_y		3_ground_torque_z		4_ground_force_vx		4_ground_force_vy		4_ground_force_vz		4_ground_force_px		4_ground_force_py		4_ground_force_pz		4_ground_torque_x		4_ground_torque_y		4_ground_torque_z		
0.893667		-25.872949		1031.544623		141.004908		0.135601		0.000000		0.185804		-0.800699		31.923492		4.363720		51.109963		863.802267		233.613340		-0.194086		0.000000		0.196161		2.104470		35.567408		9.619131		-0.195146		-0.474689		-1.229286		0.413352		1.262838		1.873810		0.036441		0.002210		0.024358		-1.569870		-1.744148		-2.284078		-0.353249		1.255915		1.900915		0.033601		-0.027986		0.046835		
0.896495		-25.059591		1036.617386		139.775575		0.135768		0.000000		0.185669		-0.771416		31.910456		4.302747		53.968239		872.105611		230.493645		-0.194195		0.000000		0.196536		2.210508		35.720940		9.440886		-0.195783		-0.501049		-1.285141		0.413352		1.262862		1.873885		0.036668		-0.001928		0.026275		-1.542237		-1.742609		-2.356799		-0.353239		1.255919		1.901013		0.033178		-0.024611		0.045978		
0.899323		-24.513839		1038.798539		139.438228		0.135872		0.000000		0.185403		-0.749328		31.753514		4.262283		57.345415		881.484719		227.030595		-0.194369		0.000000		0.197029		2.336307		35.912609		9.249473		-0.195708		-0.521296		-1.361654		0.413353		1.262885		1.873960		0.037170		-0.005629		0.028080		-1.524185		-1.737038		-2.449281		-0.353234		1.255922		1.901116		0.032669		-0.021916		0.044487		
0.902152		-24.228551		1038.040067		139.971911		0.135913		0.000000		0.185007		-0.734320		31.460980		4.242275		61.207403		891.876642		223.261583		-0.194603		0.000000		0.197626		2.480288		36.141298		9.047183		-0.202277		-0.531120		-1.454948		0.413356		1.262907		1.874036		0.037983		-0.008653		0.029663		-1.518324		-1.722217		-2.555825		-0.353235		1.255924		1.901223		0.032076		-0.019977		0.042527		
0.904980		-24.192909		1034.446394		141.383683		0.135889		0.000000		0.184485		-0.726067		31.045351		4.243144		65.521178		903.182396		219.258568		-0.194889		0.000000		0.198310		2.641351		36.409947		8.838962		-0.222104		-0.527584		-1.558289		0.413360		1.262927		1.874111		0.039077		-0.010853		0.030958		-1.524117		-1.695042		-2.670349		-0.353242		1.255928		1.901330		0.031382		-0.018732		0.040302		
0.907808		-24.391694		1028.275455		143.715495		0.135797		0.000000		0.183842		-0.724044		30.523421		4.266054		70.239808		915.246099		215.120040		-0.195222		0.000000		0.199055		2.818233		36.722497		8.631289		-0.259486		-0.509510		-1.662838		0.413366		1.262945		1.874185		0.040332		-0.012194		0.031933		-1.538535		-1.655237		-2.786902		-0.353254		1.255934		1.901437		0.030573		-0.018000		0.038021		
0.910636		-24.801173		1019.972707		147.022309		0.135636		0.000000		0.183085		-0.727439		29.916745		4.312289		75.283901		927.834121		210.958061		-0.195593		0.000000		0.199833		3.008624		37.079745		8.430685		-0.314694		-0.477841		-1.759197		0.413369		1.262961		1.874257		0.041555		-0.012782		0.032592		-1.557059		-1.605820		-2.900240		-0.353270		1.255943		1.901540		0.029661		-0.017521		0.035877		
0.913465		-25.398191		1010.060987		151.387241		0.135402		0.000000		0.182220		-0.735409		29.246513		4.383442		80.550026		940.661191		206.883056		-0.195986		0.000000		0.200607		3.209362		37.478859		8.242864		-0.384294		-0.434773		-1.838918		0.413372		1.262973		1.874325		0.042502		-0.012808		0.032955		-1.575116		-1.552281		-3.006111		-0.353289		1.255955		1.901637		0.028688		-0.017033		0.034017		
0.916293		-26.159388		999.137377		156.896043		0.135093		0.000000		0.181259		-0.747064		28.533688		4.480664		85.906342		953.385907		203.003511		-0.196389		0.000000		0.201347		3.416182		37.912699		8.072716		-0.461578		-0.383289		-1.895521		0.413372		1.262983		1.874389		0.042929		-0.012523		0.033049		-1.588630		-1.502002		-3.101204		-0.353310		1.255972		1.901727		0.027733		-0.016329		0.032540		
0.919121		-27.058864		987.839942		163.589490		0.134711		0.000000		0.180212		-0.761460		27.798805		4.603549		91.198544		965.635284		199.420654		-0.196785		0.000000		0.202016		3.623828		38.370090		7.924098		-0.537765		-0.326722		-1.925927		0.413368		1.262989		1.874449		0.042646		-0.012186		0.032917		-1.594491		-1.462878		-3.183370		-0.353334		1.255991		1.901807		0.026887		-0.015300		0.031474		
0.921949		-28.072102		976.781988		171.471237		0.134260		0.000000		0.179098		-0.777698		27.060425		4.750366		96.258141		977.023052		196.235411		-0.197159		0.000000		0.202582		3.826366		38.837731		7.800570		-0.603620		-0.268281		-1.930143		0.413358		1.262992		1.874502		0.041559		-0.012018		0.032611		-1.590400		-1.442036		-3.251180		-0.353359		1.256014		1.901877		0.026232		-0.013940		0.030793		
0.924778		-29.174672		966.534767		180.477298		0.133752		0.000000		0.177935		-0.794915		26.335090		4.917409		100.905444		987.170854		193.547104		-0.197495		0.000000		0.203012		4.017160		39.300369		7.705322		-0.650632		-0.211159		-1.911446		0.413343		1.262992		1.874548		0.039695		-0.012174		0.032200		-1.574887		-1.444449		-3.303942		-0.353385		1.256038		1.901936		0.025828		-0.012319		0.030428		
0.927606		-30.344011		957.574671		190.452098		0.133201		0.000000		0.176744		-0.812375		25.636455		5.098806		104.967416		995.760263		191.441436		-0.197781		0.000000		0.203284		4.189369		39.741906		7.640640		-0.672712		-0.158500		-1.876194		0.413323		1.262989		1.874587		0.037217		-0.012726		0.031750		-1.547625		-1.471422		-3.341920		-0.353412		1.256064		1.901982		0.025695		-0.010552		0.030283		
0.930434		-31.564415		950.290541		201.173924		0.132624		0.000000		0.175549		-0.829596		24.976208		5.287374		108.277199		1002.524014		189.999847		-0.198004		0.000000		0.203374		4.335977		40.146220		7.608570		-0.666508		-0.113465		-1.832586		0.413297		1.262982		1.874618		0.034380		-0.013674		0.031314		-1.509297		-1.520767		-3.365901		-0.353440		1.256090		1.902016		0.025823		-0.008760		0.030283		
0.933263		-32.828464		944.967251		212.348893		0.132046		0.000000		0.174371		-0.846434		24.364749		5.475092		110.692536		1007.281103		189.291683		-0.198157		0.000000		0.203269		4.450521		40.498878		7.610685		-0.631903		-0.079123		-1.790061		0.413265		1.262974		1.874642		0.031496		-0.014948		0.030907		-1.461762		-1.586756		-3.377092		-0.353469		1.256115		1.902037		0.026176		-0.007063		0.030385		
0.936091		-34.138206		941.766531		223.636392		0.131491		0.000000		0.173240		-0.863121		23.810900		5.654223		112.120015		1009.968096		189.366826		-0.198235		0.000000		0.202963		4.528226		40.789886		7.648016		-0.571829		-0.057955		-1.757860		0.413230		1.262963		1.874658		0.028890		-0.016430		0.030507		-1.407714		-1.661120		-3.376671		-0.353500		1.256139		1.902046		0.026702		-0.005574		0.030589		
0.938919		-35.505728		940.780599		234.680738		0.130984		0.000000		0.172179		-0.880219		23.322891		5.817948		112.505592		1010.598371		190.270686		-0.198239		0.000000		0.202454		4.565909		41.013964		7.721917		-0.490862		-0.051726		-1.743813		0.413191		1.262950		1.874667		0.026857		-0.017975		0.030062		-1.349910		-1.734813		-3.364968		-0.353531		1.256161		1.902042		0.027327		-0.004411		0.030917		
0.941747		-36.950279		942.010586		245.133118		0.130546		0.000000		0.171218		-0.898531		22.907275		5.960973		111.855684		1009.290389		192.026977		-0.198172		0.000000		0.201750		4.562922		41.171932		7.833351		-0.394729		-0.060958		-1.752779		0.413151		1.262936		1.874669		0.025627		-0.019418		0.029513		-1.290821		-1.799508		-3.341336		-0.353563		1.256179		1.902027		0.027959		-0.003691		0.031391		
0.944576		-38.493370		945.374951		254.684921		0.130197		0.000000		0.170376		-0.918933		22.568526		6.079969		110.237281		1006.254129		194.626887		-0.198045		0.000000		0.200868		4.521200		41.269860		7.982306		-0.289390		-0.084743		-1.785198		0.413110		1.262921		1.874664		0.025331		-0.020576		0.028828		-1.232592		-1.849242		-3.304401		-0.353596		1.256194		1.901999		0.028499		-0.003516		0.032006		
0.947404		-40.155057		950.759506		263.066199		0.129947		0.000000		0.169672		-0.942270		22.310390		6.173064		107.752531		1001.739586		198.034634		-0.197869		0.000000		0.199827		4.444173		41.316025		8.167800		-0.180331		-0.121049		-1.836829		0.413070		1.262906		1.874652		0.025999		-0.021243		0.028013		-1.177507		-1.880826		-3.252533		-0.353627		1.256206		1.901959		0.028854		-0.003958		0.032730		
0.950232		-41.946391		957.985111		270.073666		0.129801		0.000000		0.169116		-0.969163		22.134138		6.240011		104.546099		996.044993		202.163748		-0.197656		0.000000		0.198658		4.336982		41.319904		8.386567		-0.072415		-0.166631		-1.898485		0.413031		1.262890		1.874633		0.027543		-0.021206		0.027130		-1.128340		-1.894184		-3.185090		-0.353657		1.256212		1.901909		0.028961		-0.005031		0.033504		
0.953061		-43.864913		966.825732		275.577817		0.129758		0.000000		0.168707		-0.999889		22.038572		6.281731		100.785699		989.475902		206.880206		-0.197421		0.000000		0.197395		4.205699		41.289989		8.632941		0.030404		-0.217366		-1.957589		0.412996		1.262876		1.874606		0.029762		-0.020273		0.026275		-1.088135		-1.891776		-3.103209		-0.353684		1.256215		1.901852		0.028809		-0.006686		0.034257		
0.955889		-45.893462		977.033340		279.499056		0.129812		0.000000		0.168442		-1.034382		22.021176		6.299578		96.644092		982.309117		212.012916		-0.197176		0.000000		0.196074		4.056620		41.232319		8.899228		0.124832		-0.268445		-2.000130		0.412964		1.262862		1.874572		0.032382		-0.018306		0.025561		-1.059625		-1.877664		-3.009928		-0.353708		1.256212		1.901786		0.028441		-0.008821		0.034930		
0.958717		-47.995973		988.306341		281.837208		0.129949		0.000000		0.168307		-1.072122		22.076572		6.295620		92.299217		974.786846		217.348864		-0.196932		0.000000		0.194735		3.896399		41.150567		9.175381		0.208133		-0.314529		-2.013502		0.412937		1.262850		1.874530		0.035085		-0.015304		0.025097		-1.044079		-1.857128		-2.910155		-0.353729		1.256206		1.901716		0.027951		-0.011298		0.035493		
0.961545		-50.119798		1000.313259		282.647633		0.130156		0.000000		0.168283		-1.112208		22.197951		6.272235		87.916010		967.089658		222.651402		-0.196696		0.000000		0.193415		3.731330		41.045236		9.449779		0.277945		-0.350328		-1.989242		0.412915		1.262840		1.874480		0.037571		-0.011438		0.024958		-1.040778		-1.835705		-2.809577		-0.353747		1.256195		1.901643		0.027466		-0.013974		0.035947		
0.964374		-52.196866		1012.700778		282.012261		0.130411		0.000000		0.168348		-1.153443		22.378598		6.231891		83.639569		959.330918		227.665096		-0.196476		0.000000		0.192148		3.567000		40.912897		9.709315		0.332149		-0.371072		-1.924320		0.412899		1.262830		1.874423		0.039587		-0.007055		0.025181		-1.047129		-1.818485		-2.713649		-0.353761		1.256180		1.901568		0.027127		-0.016730		0.036331		
0.967202		-54.147571		1025.089985		280.065560		0.130695		0.000000		0.168480		-1.194371		22.611131		6.177603		79.585235		951.559655		232.132173		-0.196267		0.000000		0.190964		3.407895		40.746486		9.940078		0.369651		-0.373644		-1.823028		0.412888		1.262820		1.874358		0.040970		-0.002642		0.025731		-1.059019		-1.809187		-2.626458		-0.353773		1.256161		1.901493		0.027064		-0.019475		0.036716		
